<svg id="Layer_1" data-name="Layer 1" xmlns="http://www.w3.org/2000/svg" viewBox="0 0 1187.11 231.27"><defs><style>.cls-1{fill:#fff;}.cls-2{fill:#f15725;}.cls-3{fill:#6a1a99;}</style></defs><title>maximus-pay</title><rect class="cls-1" width="1187.11" height="231.27" rx="115.63" ry="115.63"/><path class="cls-2" d="M593.62,579.62H575L550.3,530l-3.18,49.67H522.29l5.3-103h22.86l33.93,69.67,33.77-69.67h22.72l5.45,103H621.48L618.3,530Z" transform="translate(-424.03 -423.07)"/><path class="cls-2" d="M696.75,503.9q5.14,0,9.54.23t9.24.68q4.85.45,10.83,1.14l14.31,1.59v72.08H716v-5a35.07,35.07,0,0,1-9.39,5.37,33.35,33.35,0,0,1-11.81,1.9,33.81,33.81,0,0,1-12.95-2.58,32.49,32.49,0,0,1-11.13-7.57,37.73,37.73,0,0,1-7.8-12.34A45,45,0,0,1,660,542.52a47.13,47.13,0,0,1,2.8-15.75,36.32,36.32,0,0,1,7.34-12.19,32.29,32.29,0,0,1,11.44-7.88A39.44,39.44,0,0,1,696.75,503.9Zm4.39,19.84q-9.09,0-13.25,5.38T683.72,543q0,8.34,4.62,13.48a15.23,15.23,0,0,0,11.89,5.15,22.14,22.14,0,0,0,7.8-1.44,26.78,26.78,0,0,0,8-4.92V524.5q-3.78-.3-7.34-.53T701.14,523.74Z" transform="translate(-424.03 -423.07)"/><path class="cls-2" d="M836.38,579.62H809.27l-14.84-21-14.84,21H752.48L778.22,543l-25.74-36.8h28.17l13.78,19.24,13.78-19.24h28.17L810.63,543Z" transform="translate(-424.03 -423.07)"/><path class="cls-2" d="M860,497.24a14.88,14.88,0,0,1-10.67-4.09A13.76,13.76,0,0,1,845,482.7,14.2,14.2,0,0,1,849.33,472a15.48,15.48,0,0,1,21.12,0,14.08,14.08,0,0,1,4.4,10.68,13.83,13.83,0,0,1-1.22,5.83,14.1,14.1,0,0,1-3.25,4.54,16.27,16.27,0,0,1-4.7,3A14.2,14.2,0,0,1,860,497.24Zm12.27,82.38H847.74V506.17h24.53Z" transform="translate(-424.03 -423.07)"/><path class="cls-2" d="M982.82,503.9a43.49,43.49,0,0,1,12.42,1.67,26.83,26.83,0,0,1,9.69,5.07,22.74,22.74,0,0,1,6.37,8.78,32.9,32.9,0,0,1,2.27,12.8v47.4H989V539.49q0-7.57-3.4-10.45T976,526.16c-1.82,0-3.74.08-5.76.23a46.49,46.49,0,0,0-6.51,1,34.56,34.56,0,0,1,.38,3.78c0,1.21.08,2.63.08,4.24v44.22H939.66V539.49q0-7.57-3.41-10.45t-9.46-2.88c-1.72,0-3.56.06-5.53.16s-4.11.25-6.43.45v52.85H890.29V507.84q10.61-1.66,22-2.8t21.35-1.14a47.11,47.11,0,0,1,9.47.91,27.13,27.13,0,0,1,7.95,2.88Q959.2,506,967.38,505A121.6,121.6,0,0,1,982.82,503.9Z" transform="translate(-424.03 -423.07)"/><path class="cls-2" d="M1107,578.26q-12.27,1.51-24.38,2.42t-22.12.91a42.18,42.18,0,0,1-12.19-1.66,25.5,25.5,0,0,1-9.46-5.08,23.37,23.37,0,0,1-6.21-8.78,32.65,32.65,0,0,1-2.27-12.8v-47.1h24.68V548q0,7.57,3.26,10.45t9,2.88q3,0,6.66-.23l8.33-.53V506.17H1107Z" transform="translate(-424.03 -423.07)"/><path class="cls-2" d="M1125.18,556.76a119.67,119.67,0,0,0,17,5,64.45,64.45,0,0,0,12.19,1.52,22,22,0,0,0,7.42-1.06q2.88-1.07,2.88-3.49a3.37,3.37,0,0,0-1.44-2.87,11.83,11.83,0,0,0-3.79-1.74,40.32,40.32,0,0,0-5.3-1.14c-2-.3-4-.71-6.13-1.21a82.89,82.89,0,0,1-11.13-3.11,27.5,27.5,0,0,1-8-4.39,16.38,16.38,0,0,1-4.84-6.36,22,22,0,0,1-1.59-8.71q0-12.11,8.7-18.62t24-6.52a93.18,93.18,0,0,1,16.73,1.59,105.64,105.64,0,0,1,14.92,3.71l-4.7,18.18a133.29,133.29,0,0,0-15.29-3.86,65.64,65.64,0,0,0-11.51-1.29q-8.79,0-8.78,5.15a3.5,3.5,0,0,0,1.13,2.8A9.21,9.21,0,0,0,1151,532a42.62,42.62,0,0,0,5.23,1.22q3,.52,6.66,1.28a80,80,0,0,1,10.6,2.88,27.7,27.7,0,0,1,8,4.24,18.14,18.14,0,0,1,5.08,6.29,20.71,20.71,0,0,1,1.81,9.16q0,12.57-9.08,18.7T1155,581.9a96.37,96.37,0,0,1-16.13-1.52,105,105,0,0,1-18.4-5Z" transform="translate(-424.03 -423.07)"/><path class="cls-3" d="M1278.59,475.43a62.63,62.63,0,0,1,18.48,2.57,40.77,40.77,0,0,1,14.16,7.43,32.86,32.86,0,0,1,9,11.88,41.92,41.92,0,0,1,0,32,34.07,34.07,0,0,1-9,12.12,40.31,40.31,0,0,1-14.16,7.65,60.66,60.66,0,0,1-18.48,2.65h-14.23v27.86h-25.45v-103q9.09-.45,19.09-.83T1278.59,475.43Zm1.52,54.07q7.88,0,12.87-4.17t5-11.74q0-7.71-5-11.81t-12.87-4.09c-2.63,0-5.25,0-7.88.08s-5.25.13-7.87.23v31.5Z" transform="translate(-424.03 -423.07)"/><path class="cls-3" d="M1366,503.9q5.14,0,9.54.23t9.23.68c3.24.3,6.84.68,10.83,1.14l14.32,1.59v72.08h-24.69v-5a35.07,35.07,0,0,1-9.39,5.37,33.35,33.35,0,0,1-11.81,1.9,33.77,33.77,0,0,1-13-2.58,32.49,32.49,0,0,1-11.13-7.57,37.73,37.73,0,0,1-7.8-12.34,45,45,0,0,1-3-16.89,46.88,46.88,0,0,1,2.8-15.75,36.32,36.32,0,0,1,7.34-12.19,32.2,32.2,0,0,1,11.44-7.88A39.44,39.44,0,0,1,1366,503.9Zm4.39,19.84q-9.09,0-13.25,5.38T1353,543q0,8.34,4.62,13.48a15.22,15.22,0,0,0,11.89,5.15,22.22,22.22,0,0,0,7.8-1.44,27,27,0,0,0,8-4.92V524.5c-2.53-.2-5-.38-7.35-.53S1373,523.74,1370.37,523.74Z" transform="translate(-424.03 -423.07)"/><path class="cls-3" d="M1463.35,613.55h-27.1l17.41-38-35-69.36h27.56l20.45,40.89,18.62-40.89h27.57Z" transform="translate(-424.03 -423.07)"/></svg>